<svg xmlns="http://www.w3.org/2000/svg" width="165" height="165" viewBox="0 0 165 165">
  <defs>
    <style>
      .cls-1 {
        fill: #df786c;
        stroke: #df786c;
        stroke-width: 0.25px;
      }

      .cls-1, .cls-3, .cls-4 {
        stroke-miterlimit: 10;
      }

      .cls-2, .cls-3 {
        fill: #374031;
      }

      .cls-3 {
        stroke: #adcdb9;
      }

      .cls-3, .cls-4 {
        stroke-width: 0.5px;
      }

      .cls-4 {
        fill: #adcdb9;
        stroke: #374031;
      }
    </style>
  </defs>
  <g id="Layer_5" data-name="Layer 5">
    <circle class="cls-1" cx="82.5" cy="82.5" r="79.95"/>
    <g>
      <path class="cls-2" d="M74.24,144l-.15-.82c1.72-.32,4.83-1.26,6.37-3.95,1.74-3.06.54-6.94,0-8.81A15.37,15.37,0,0,0,78.9,127a5.37,5.37,0,0,1-1-3.42c.19-2.64,2-4.55,3.44-6.08a15.7,15.7,0,0,1,3.34-2.68,6.44,6.44,0,0,0,2.42-2.23,8.12,8.12,0,0,0,.78-5.54l.82-.13a8.85,8.85,0,0,1-.89,6.09,7.16,7.16,0,0,1-2.68,2.51A15.33,15.33,0,0,0,82,118.06c-1.36,1.44-3,3.22-3.21,5.57a4.58,4.58,0,0,0,.89,3,16.52,16.52,0,0,1,1.58,3.54c.62,2,1.89,6.1,0,9.47C79.48,142.57,76.1,143.6,74.24,144Z"/>
      <path class="cls-3" d="M90.42,31.51C83.3,34.42,80.69,42,80.58,42.29c-2.06,6.15.53,10.72,4.83,18.3A146.7,146.7,0,0,1,94.1,78a128.11,128.11,0,0,1,6.55,21.28c1.91,8.17,3.06,13.11,9,17,5.19,3.41,13.09,5.48,19,2.41s8-10.33,8.42-12.46c1.53-7.39-1.58-12.07-6.28-19.17A104.65,104.65,0,0,1,119.6,66.37a113,113,0,0,1-5.2-17.68c-1.69-7.49-2.81-12.43-8.34-15.68-.78-.46-7.92-4.44-15.3-1.64Z"/>
      <path class="cls-3" d="M122,105.69c-4,1.64-8.9-.3-12-2.58-4.07-3-5-6.75-6.44-12.41a100,100,0,0,0-4.74-14.85,115.13,115.13,0,0,0-6-12.21c-3-5.52-4.85-8.85-3.64-13.28.16-.59,1.73-5.82,6.46-7.62h0c4.85-1.82,9.7,1.26,10.24,1.62,3.8,2.53,4.67,6.09,6,11.47a87.28,87.28,0,0,0,3.77,12.33,82.12,82.12,0,0,0,7.67,14.54c3.15,5,5.42,8.58,4.62,13.88-.23,1.53-1.3,6.67-5.26,8.78C122.51,105.48,122.28,105.59,122,105.69Z"/>
      <path class="cls-3" d="M72.21,67.57a9.45,9.45,0,0,1,4.26.64A8.93,8.93,0,0,1,81.28,73C82.71,76.35,84,79,84.34,80.72A37,37,0,0,1,82,100.57a9,9,0,0,1-3.46,4.49,9.45,9.45,0,0,1-5,1.36Q72.9,87,72.21,67.57Z"/>
      <path class="cls-3" d="M48,66a11.46,11.46,0,0,0-4.74.34,9.49,9.49,0,0,0-5.62,4.41c-1.8,3.28-3.39,5.86-3.9,7.54a33.62,33.62,0,0,0,1.18,20A9.08,9.08,0,0,0,38.37,103a11.56,11.56,0,0,0,5.43,1.71Q45.87,85.35,48,66Z"/>
      <path class="cls-3" d="M61.31,34.12c-7.88-.25-13.47,5.71-13.7,6-4.5,4.88-4,10.24-3.14,19.12a147.57,147.57,0,0,1,.87,19.84,129.53,129.53,0,0,1-2.77,22.62c-1.63,8.44-2.61,13.53,1.32,19.69,3.42,5.36,9.94,10.58,16.76,10.19,7-.4,11.76-6.32,13.07-8.13,4.52-6.26,3.57-11.93,2.14-20.53a106.71,106.71,0,0,1-1.85-24A115.11,115.11,0,0,1,76.53,60.2c1.55-7.71,2.57-12.8-1.24-18.13-.54-.77-5.54-7.47-13.62-7.93Z"/>
      <path class="cls-3" d="M59.86,116.65c-4.44-.14-8.18-4-10.12-7.42-2.55-4.52-1.87-8.41-.84-14.29a103.39,103.39,0,0,0,1.78-15.85,115.28,115.28,0,0,0-.49-13.91c-.52-6.42-.84-10.29,2.15-13.93.39-.49,4-4.72,9.22-4.42h0c5.29.32,8.53,5.23,8.89,5.79,2.49,4,1.82,7.64.81,13.22a89.9,89.9,0,0,0-1.62,13.1,83.72,83.72,0,0,0,1.09,16.78c.86,6,1.48,10.29-1.49,14.91-.85,1.33-4,5.69-8.58,6A7.12,7.12,0,0,1,59.86,116.65Z"/>
      <path class="cls-4" d="M94.8,109.59l-12.43-4.44L93.31,72.78a6.83,6.83,0,0,1,3.54-4,7.49,7.49,0,0,1,2.34-.57,5.17,5.17,0,0,1,1.68.13h0a6.67,6.67,0,0,1,4,3.11,6.87,6.87,0,0,1,0,6.21Z"/>
      <path class="cls-2" d="M87.87,101.27l-.8-.23c1.92-6.62,3.3-11.47,4.14-14.43,1.32-4.67,2.14-7.64,4.18-11.36a38.49,38.49,0,0,1,4.13-6.09,58.67,58.67,0,0,0-3.35,6.37c-2.23,4.94-2.9,8.26-5,15.24C90.49,93.17,89.38,96.81,87.87,101.27Z"/>
      <path class="cls-2" d="M93,103l-.77-.3a186.78,186.78,0,0,0,8.1-25.77c.59-2.47,1.13-5,1.61-7.48V70a38.06,38.06,0,0,1-.8,7.17,128.58,128.58,0,0,1-3.22,12.81A132.32,132.32,0,0,1,93,103Z"/>
    </g>
  </g>
</svg>
