<svg xmlns="http://www.w3.org/2000/svg" width="165" height="165" viewBox="0 0 165 165">
  <defs>
    <style>
      .cls-1, .cls-5 {
        fill: #df786c;
      }

      .cls-2 {
        fill: #adcdb9;
        stroke: #374031;
        stroke-width: 0.75px;
      }

      .cls-2, .cls-5 {
        stroke-miterlimit: 10;
      }

      .cls-3 {
        fill: #293223;
      }

      .cls-4 {
        fill: #fcf2e8;
      }

      .cls-5 {
        stroke: #df786c;
        stroke-width: 0.25px;
      }
    </style>
  </defs>
  <g id="Layer_5" data-name="Layer 5">
    <g>
      <circle class="cls-1" cx="82.56" cy="82.5" r="79.95"/>
      <path class="cls-1" d="M162.51,82.5a79.84,79.84,0,1,1-6.06-30.61A80,80,0,0,1,162.51,82.5Zm0,0a79.85,79.85,0,1,0-6.09,30.59A79.85,79.85,0,0,0,162.51,82.5Z"/>
    </g>
    <g>
      <g>
        <polygon class="cls-2" points="93.04 34.61 142.95 61.15 73.08 98.33 24.63 68.88 93.04 34.61"/>
        <polygon class="cls-2" points="24.63 68.88 25.35 105.12 73.09 134.56 73.08 98.33 24.63 68.88"/>
        <polygon class="cls-2" points="142.95 61.15 142.62 95.69 73.09 134.56 73.08 98.33 142.95 61.15"/>
        <g id="Group_1" data-name="Group 1">
          <path id="Path_1" data-name="Path 1" class="cls-3" d="M85.78,117.56c-3.43-1.65-3.84-8-.92-14.1s8.06-9.78,11.49-8.14A4.73,4.73,0,0,1,98.66,98l-.36.4c-1.56-4.15-6.07-3.92-10.07.49s-6,11.36-4.4,15.51A4.49,4.49,0,0,0,86,117Z"/>
          <path id="Path_2" data-name="Path 2" class="cls-3" d="M85.77,117.56,86,106.07l-.74.42v-.33l3.63-2L90.51,112l1.82-9.86,3.59-2v.33l-.74.42-.27,11.49.74-.42v.33l-4.1,2.32v-.33l.74-.42L92.54,103l-.06,0L90.2,115.38l-1.67,1-2.1-9.9-.05,0-.26,10.9Z"/>
          <path id="Path_3" data-name="Path 3" class="cls-3" d="M97.05,110.53c-.56-.45-.82-1.35-.79-2.73a7.48,7.48,0,0,1,1-3.7,7,7,0,0,1,2.5-2.5c2-1.15,3-.38,2.84,2.3l-3.79,2.15v.68a5.91,5.91,0,0,0,.27,2.38c.21.45.59.52,1.15.2a4.71,4.71,0,0,0,2.09-3.31l.24-.08a7.07,7.07,0,0,1-1,2.46,5.53,5.53,0,0,1-2,1.83C98.47,110.86,97.61,111,97.05,110.53Zm1.83-4.83,1.39-.79,0-.85a8.18,8.18,0,0,0-.09-1.85.29.29,0,0,0-.49-.22,1.42,1.42,0,0,0-.58.87,8,8,0,0,0-.23,2Z"/>
          <path id="Path_4" data-name="Path 4" class="cls-3" d="M107.4,97.78v-.31l3.46-2v.31l-.55.31,1.07,5.17,1.34-6.53-.93.53V95l1.81-1v.31l-.56.32-1.8,8.86-1.84,1-1-4.66-1.39,6-1.8,1-1.8-6.82-.6.34v-.31l4.06-2.31v.31l-.81.46,1.1,5.2,1.06-4.61-.29-1.65Z"/>
          <path id="Path_5" data-name="Path 5" class="cls-3" d="M116.56,96.41l.39-.22,0-1.34a9.21,9.21,0,0,0-.09-2.13c-.08-.32-.26-.41-.53-.26a1.44,1.44,0,0,0-.44.42,1,1,0,0,0-.2.56,1.72,1.72,0,0,0,.06.53l.34-.19a2.65,2.65,0,0,1,.09.82,2.27,2.27,0,0,1-.36,1.08,2.4,2.4,0,0,1-.86.85c-.77.43-1.14.17-1.12-.79q.06-2.13,2.86-3.72c1.06-.61,1.8-.79,2.19-.55s.58,1,.55,2.23l-.08,3.52c0,.6.11.83.36.68s.5-.87.58-2.09l.21-.09a6.16,6.16,0,0,1-.5,2.35,3.08,3.08,0,0,1-1.29,1.29c-1.07.61-1.68.53-1.82-.23a3.86,3.86,0,0,1-.55,1.27,3,3,0,0,1-1,.89c-1.33.75-2,.42-1.94-1a3.29,3.29,0,0,1,.8-2.12A8.77,8.77,0,0,1,116.56,96.41ZM116,100c0,.14.14.18.27.1a1.2,1.2,0,0,0,.4-.66,4,4,0,0,0,.21-1.33l0-1.61-.09,0a2.22,2.22,0,0,0-.87,2v.28a4.74,4.74,0,0,0,0,1.12Z"/>
          <path id="Path_6" data-name="Path 6" class="cls-3" d="M120.87,85.15l3.29-1.86L123.85,96l.75-.42v.31l-4,2.26v-.31l.74-.42.29-12.4-.79.45Z"/>
          <path id="Path_7" data-name="Path 7" class="cls-3" d="M125,87.5l3.28-1.86-.18,8,.75-.43v.31l-4,2.26v-.31l.74-.42.18-7.63-.79.44Zm2-2.34c-.47.26-.81.3-1,.1a1.34,1.34,0,0,1-.28-1,2.92,2.92,0,0,1,.36-1.33,2.48,2.48,0,0,1,1-1c.45-.25.79-.31,1-.17s.33.46.32,1a3,3,0,0,1-.36,1.4A2.68,2.68,0,0,1,127.05,85.16Z"/>
          <path id="Path_8" data-name="Path 8" class="cls-3" d="M129.25,85.09l3.29-1.87-.19,8,.75-.43v.31l-4,2.26V93l.74-.42L130,85l-.79.45Zm2.06-2.35c-.48.27-.81.31-1,.11a1.39,1.39,0,0,1-.27-1,3,3,0,0,1,.36-1.34,2.46,2.46,0,0,1,1-1c.44-.26.78-.31,1-.17s.33.46.32,1a3.15,3.15,0,0,1-.37,1.4A2.63,2.63,0,0,1,131.31,82.74Z"/>
          <path id="Path_10" data-name="Path 10" class="cls-3" d="M98.28,97.35c.06,0,.1.16.25.39s.19.16.48.46a1.17,1.17,0,0,1,.37.53,1.4,1.4,0,0,1,0,.76,2,2,0,0,1-.35.7,1.85,1.85,0,0,1-.68.64.54.54,0,0,1-.66,0,1.13,1.13,0,0,1-.11-.9,5,5,0,0,1,.23-.75L98,98.7a6.44,6.44,0,0,0,.2-.72C98.24,97.55,98.23,97.39,98.28,97.35Z"/>
          <path id="Path_11" data-name="Path 11" class="cls-3" d="M93.27,95.08c.07,0,.12.14.3.33s.21.12.54.35.36.27.43.44a1.33,1.33,0,0,1,0,.73,2.39,2.39,0,0,1-.3.72,2.09,2.09,0,0,1-.67.71c-.46.32-.86.13-.9-.44a1.25,1.25,0,0,1,0-.33,5.11,5.11,0,0,1,.18-.75c.06-.23.07-.24.12-.42s.11-.48.15-.72C93.25,95.28,93.22,95.13,93.27,95.08Z"/>
        </g>
        <polygon class="cls-3" points="109.65 43.12 40.98 78.72 54.9 87.18 121.96 49.67 109.65 43.12"/>
        <path class="cls-3" d="M54.9,87.18,53,122.09,40,114l1-35.3"/>
      </g>
      <path class="cls-4" d="M147.19,60.31c.89,0-.6-1.73-.73-1.85a4.42,4.42,0,0,0-2.71-1.55c-.89,0,.6,1.73.73,1.86a4.46,4.46,0,0,0,2.71,1.54Z"/>
      <path class="cls-1" d="M145.43,57.8a.63.63,0,0,0,0-1.25.63.63,0,0,0,0,1.25Z"/>
      <path class="cls-5" d="M143.48,60.34l.65.46,1.33-4.9h-.1l.7.09a.86.86,0,0,1-.23-.06l.62.27-.17-.1-.08,0a3.69,3.69,0,0,0-.71-.3,3,3,0,0,0-1.53,0l-.34.15a2.56,2.56,0,0,0-.35.15,2.35,2.35,0,0,0-.29.22,2.8,2.8,0,0,0-.29.23,2.73,2.73,0,0,0-.74,1.27,3,3,0,0,0,0,1.54l0,0,.26.63,0,0c.1.18.65.79.42.56a2.57,2.57,0,0,0,1.17.68l.7.1h.19l-.7-.09a.67.67,0,0,1,.19,0l-.63-.27.06,0a1.93,1.93,0,0,0,1,.32,2.08,2.08,0,0,0,1-.05,2,2,0,0,0,.89-.47,1.94,1.94,0,0,0,.68-.74l.27-.63a2.77,2.77,0,0,0,0-1.4l-.27-.63a2.65,2.65,0,0,0-.94-.94,6.44,6.44,0,0,0-.72-.3l-.12,0a7.32,7.32,0,0,0-.8-.11h-.13l1.86.77h0l.41.53s0,0,0,0L147,58s0-.05,0-.07l.1.7a.11.11,0,0,1,0-.08l-.1.7a.14.14,0,0,1,0-.06l-.27.63a.21.21,0,0,1,0-.06l-.42.53.05-.05-.53.42.06,0-.63.27.07,0-.7.09h.06l-.7-.09.08,0-.63-.27.15.09a4.45,4.45,0,0,0,.77.33.43.43,0,0,0,.16,0,5.06,5.06,0,0,0,.87.12l.7-.1a1.87,1.87,0,0,0,.89-.47,1.18,1.18,0,0,0,.47-.47,1.87,1.87,0,0,0,.47-.89l.1-.7-.1-.7a2.91,2.91,0,0,0-1.2-1.57l-.65-.46a2,2,0,0,0-1-.31,2,2,0,0,0-1,0,2.07,2.07,0,0,0-.89.47,2,2,0,0,0-.68.74l-.27.63a2.77,2.77,0,0,0,0,1.4l.27.63a2.65,2.65,0,0,0,.94.94Z"/>
      <path class="cls-5" d="M21.78,68.57h.13l-.7-.09a2.09,2.09,0,0,1,.34.08l-.63-.26,0,0-.53-.42,0,0-.41-.53,0,0-.26-.63s0,0,0,0l-.09-.7v0l.09-.7v0l.27-.63,0,0,.42-.53,0,0-.42.53v0a1.76,1.76,0,0,0-.33,1,2.23,2.23,0,0,0,0,.36s.09.69.1.71a1.77,1.77,0,0,0,.13.33c.16.37.08.21.14.33l.42.54h0l.54.41h0a.47.47,0,0,1,.09.06l-.53-.42,0,0-.41-.53a0,0,0,0,1,0,0L20,67.23v0l-.09-.7h0l.09-.69v0l.26-.63v0l.41-.54s0,0,0,0l.54-.41a.09.09,0,0,1-.06,0l.63-.26-.37.13,2,4.81.93-.47-4-2.27v0l.09-.7a.36.36,0,0,1,0,.1l.26-.63a.08.08,0,0,1,0,0l.41-.53,0,0,.53-.41,0,0,.63-.27h0l.7-.09h-.05l.7.09-.07,0,.63.27-.15-.09a4.7,4.7,0,0,0-.7-.29,2.33,2.33,0,0,0-.38-.05,2.7,2.7,0,0,0-.39,0,1.94,1.94,0,0,0-1,.22,2,2,0,0,0-.85.55,1.9,1.9,0,0,0-.54.84,2,2,0,0,0-.23,1l.09.7a2.79,2.79,0,0,0,.68,1.16l.53.41a2.6,2.6,0,0,0,1.33.36h0l-.7-.09.07,0-.63-.27.16.09h0l.63.26,0,0h0l.7.1h0a2.78,2.78,0,0,0,1.38-.38,2.9,2.9,0,0,0,1-1c.06-.12.08-.2.15-.35a3.6,3.6,0,0,0,.14-.35,5.36,5.36,0,0,0,.11-.79A2.63,2.63,0,0,0,23,63.7a2.6,2.6,0,0,0-1.33.36l-.92.46a2,2,0,0,0-.74.68,2,2,0,0,0-.47.9l-.1.7a2.06,2.06,0,0,0,.23,1,1.37,1.37,0,0,0,.34.58,1.94,1.94,0,0,0,.74.68l.63.26a2.53,2.53,0,0,0,1.39,0l.33-.11a5,5,0,0,0,.72-.31,2.76,2.76,0,0,0,1-1,2,2,0,0,0,.32-1,1.89,1.89,0,0,0,0-1.07,2.62,2.62,0,0,0-.7-1.2,5.21,5.21,0,0,0-.66-.5l.53.41s0,0,0,0l.41.53h0l.26.63v0l.09.7v0l-.09.7v0l-.26.62,0,0-.41.53v0l.42-.54v0l.27-.63a2.82,2.82,0,0,0,0-1.47v0l-.27-.63s0,0,0,0l-.42-.53a2.36,2.36,0,0,0-.61-.47,3.58,3.58,0,0,0-.85-.33l-.47-.07-.48-.06a2.09,2.09,0,0,0-1,.23,2,2,0,0,0-.84.54,2,2,0,0,0-.55.85,1.94,1.94,0,0,0-.22,1l.09.7a2.54,2.54,0,0,0,.68,1.16l.53.41a2.58,2.58,0,0,0,1.33.36Z"/>
    </g>
  </g>
</svg>
