<svg xmlns="http://www.w3.org/2000/svg" width="165" height="165" viewBox="0 0 165 165">
  <defs>
    <style>
      .cls-1 {
        fill: #df786c;
      }

      .cls-2 {
        fill: #adcdb9;
        stroke: #374031;
      }

      .cls-2, .cls-4, .cls-5 {
        stroke-miterlimit: 10;
      }

      .cls-2, .cls-5 {
        stroke-width: 0.5px;
      }

      .cls-3, .cls-4, .cls-5 {
        fill: #374031;
      }

      .cls-4, .cls-5 {
        stroke: #adcdb9;
      }

      .cls-4 {
        stroke-width: 0.75px;
      }
    </style>
  </defs>
  <g id="Layer_5" data-name="Layer 5">
    <g>
      <circle class="cls-1" cx="82.56" cy="82.5" r="79.95"/>
      <path class="cls-1" d="M162.51,82.5a79.84,79.84,0,1,1-6.06-30.61A80,80,0,0,1,162.51,82.5Zm0,0a79.85,79.85,0,1,0-6.09,30.59A79.85,79.85,0,0,0,162.51,82.5Z"/>
    </g>
    <g>
      <path class="cls-2" d="M110.49,62.45A3.9,3.9,0,0,0,106,64a3.89,3.89,0,0,0-4.44-1.48,4.05,4.05,0,0,0-2.11,5.31,4.6,4.6,0,0,0,.69,1.23,15.65,15.65,0,0,0,2.1,2.57A16.56,16.56,0,0,0,106,74.41a17.17,17.17,0,0,0,4-3,16.35,16.35,0,0,0,1.84-2.26,4.43,4.43,0,0,0,.77-1.34A4.06,4.06,0,0,0,110.49,62.45Z"/>
      <path class="cls-3" d="M66.48,117.32h-.2a65.81,65.81,0,0,1-18-3.07,57.09,57.09,0,0,1-17.83-10l.55-.66a56.18,56.18,0,0,0,17.56,9.82,65.21,65.21,0,0,0,17.74,3h.2c9.49,0,28.22-7.56,47.22-24.26a138.86,138.86,0,0,0,15.87-16.47l.66.54a139.72,139.72,0,0,1-16,16.57C95.11,109.7,76.13,117.32,66.48,117.32Z"/>
      <path class="cls-4" d="M115.37,127.31c-.08-1.49-2.11-2.43-4.27-3.42a28.38,28.38,0,0,0-6-1.71c-5.49-1.23-5.81-1-6-.86-1.51,1.61,2.08,9,6,9.41.43.05.47,0,2.57,0,3.16,0,3.44.23,4.27,0C113.58,130.29,115.45,128.79,115.37,127.31Z"/>
      <path class="cls-5" d="M32.86,49.93a28.2,28.2,0,0,1,9.41,8.55c2,3,3.16,6,5.13,17.1,1.49,8.42,2.05,13.49,3.42,23.09,1.38,9.76,2.08,14.64,2.56,16.24,0,0,4.31,14.22,17.1,23.09.57.39,1.91,1.3,2.57.85s.44-1.7,0-3.42a31.16,31.16,0,0,0-4.28-9.4c-3.92-6-4.18-5.29-5.13-7.7a31,31,0,0,1-1.71-8.55c-.2-1.92-.43-4.16,0-4.27.6-.16,1.48,3.94,4.28,8.55a29.75,29.75,0,0,0,10.26,10.26c3,1.71,7.72,3.7,8.55,2.56s-2.6-4-6.84-10.26a71.63,71.63,0,0,1-7.7-14.53,132.77,132.77,0,0,0,6.84,12.82c5.1,8.46,8,11.2,9.63,12.39l.63.44c1.53,1,3,1.4,9,2.13,1.32.17,1.59.19,1.71,0,.57-.86-3.76-3.73-7.27-9a45.75,45.75,0,0,1-3.42-6.84,104.64,104.64,0,0,1-5.13-13.68,60.4,60.4,0,0,0,7.7,18.81c7.62,12,19.45,19.73,20.95,18.38.61-.55-.46-2.67-2.57-6.84a60,60,0,0,0-6.41-9.83c-2.37-3-2.54-2.74-3.42-4.28-1.6-2.79-1.61-4.66-2.57-9.4C94.89,101.05,93.46,97,93.57,97a42.76,42.76,0,0,1,1.71,5.13c1.92,6.59,1.63,8.24,3.42,10.26s4.9,3.43,6,2.56-.14-3.84-1.71-8.55C99.92,97.2,101.35,98.61,98.7,91a118.71,118.71,0,0,0-8.55-18.81c-4.08-7.49-6.51-12-11.12-17.1S72.8,49.76,67.92,44.8A71.89,71.89,0,0,1,56,28.55Z"/>
      <path class="cls-5" d="M135.89,70.88a2.84,2.84,0,0,0-1.71-2.57,3,3,0,0,0-2.56.86,5.7,5.7,0,0,0-1.71,3.42c-.29,1.17-.71,2.93,0,3.42s1.74-.32,2.56-.86C134,74.17,136,72.84,135.89,70.88Z"/>
      <path class="cls-5" d="M127.66,70.65a2,2,0,0,0-2.14.46,2.13,2.13,0,0,0-.11,1.92,4.14,4.14,0,0,0,1.81,2c.7.49,1.75,1.23,2.26.89s.25-1.23.11-1.91C129.33,72.78,129,71.09,127.66,70.65Z"/>
      <path class="cls-5" d="M119.78,79.91a2,2,0,0,0-2.14.46,2.11,2.11,0,0,0-.11,1.91,4.09,4.09,0,0,0,1.82,2c.7.49,1.74,1.23,2.25.89s.25-1.23.11-1.92C121.45,82,121.11,80.34,119.78,79.91Z"/>
      <path class="cls-5" d="M132.53,84a2.81,2.81,0,0,0,1.05-2.81c-.38-1.06-1.69-1.35-2.14-1.45a5.76,5.76,0,0,0-3.67.71c-1.09.48-2.71,1.19-2.69,2s1.23,1.14,2.13,1.45C128.83,84.45,131.05,85.22,132.53,84Z"/>
      <path class="cls-3" d="M118.38,94.94a5.18,5.18,0,0,0-.78-1.58,5.72,5.72,0,0,0-1.21-1.16c-.35-.26-.67-.5-.58-.9s.6-.87,5.6-.33l-.1.85a27.41,27.41,0,0,0-4.34-.25,6.1,6.1,0,0,1,1.31,1.28,5.89,5.89,0,0,1,.92,1.84Z"/>
      <path class="cls-5" d="M123.2,95.56A1.76,1.76,0,0,0,125,94.9a1.86,1.86,0,0,0-.15-1.67A3.54,3.54,0,0,0,123,91.71c-.66-.34-1.66-.85-2.06-.49s-.06,1.09.15,1.67C121.48,93.93,122,95.36,123.2,95.56Z"/>
      <path class="cls-5" d="M119.27,98.06a1.3,1.3,0,0,0,1.45-.06,1.63,1.63,0,0,0,.4-1.29,2.55,2.55,0,0,0-.81-1.58c-.36-.42-.91-1-1.29-.87s-.37.8-.4,1.29C118.56,96.42,118.49,97.62,119.27,98.06Z"/>
    </g>
  </g>
</svg>
