<svg id="Layer_6" data-name="Layer 6" xmlns="http://www.w3.org/2000/svg" width="152.73" height="152.73" viewBox="0 0 152.73 152.73">
  <defs>
    <style>
      .cls-1 {
        fill: #df786c;
      }

      .cls-2 {
        fill: #adcdb9;
        stroke: #374031;
        stroke-width: 0.5px;
      }

      .cls-2, .cls-3 {
        stroke-miterlimit: 10;
      }

      .cls-3 {
        fill: #374031;
        stroke: #adcdb9;
        stroke-width: 0.75px;
      }
    </style>
  </defs>
  <g>
    <circle class="cls-1" cx="76.43" cy="76.37" r="76.3" transform="translate(-31.61 76.41) rotate(-45)"/>
    <path class="cls-1" d="M152.73,76.37A76.19,76.19,0,1,1,147,47.16,76.23,76.23,0,0,1,152.73,76.37Zm0,0a76.11,76.11,0,1,0-5.81,29.2A76.18,76.18,0,0,0,152.73,76.37Z"/>
  </g>
  <g>
    <path class="cls-2" d="M129.38,83.81a48.93,48.93,0,0,0,7.55-21.42,24.77,24.77,0,0,0-2.35-13.51c-2.64-5.15-6.42-6.37-11.7-8A127,127,0,0,0,92,35.45a122.63,122.63,0,0,0-14.85.18c-3.35.23-7.08.58-9.72,2.89-2.48,2.17-3.09,6-3.68,9.07A130.21,130.21,0,0,0,61.54,81c.75,10,10.25,9.29,18,10.32,6.36.84,12.74,1.55,19.14,1.84s12.82-.89,19,0c5.73.84,14.91,6,20.51,2.68-5.7.32-10.1-2.4-10.7-5.32a6.93,6.93,0,0,1,.78-5.07C128.66,84.93,129,84.37,129.38,83.81Z"/>
    <path class="cls-3" d="M13.73,69.15c7.55-22.69,38-26,57.14-17.44a40,40,0,0,1,8.89,5.51c5,4.06,9.59,8.78,11.58,15A26.94,26.94,0,0,1,86.92,97a28,28,0,0,1-26,10.08c-2.7-.46-5.69-.73-8.21.58-2.06,1.08-3.71,3.07-5.58,4.45a51.27,51.27,0,0,1-9.54,5.57c-3.61,1.68-7,2.79-7.16,2.39s5.29-2.51,8-8c2.08-4.24.79-7.32-3.86-8.59C27,101.45,20.14,98.26,15.81,91.35,11.63,84.68,11.29,76.5,13.73,69.15Z"/>
  </g>
</svg>
